<?xml version="1.0" ?><!DOCTYPE svg  PUBLIC '-//W3C//DTD SVG 1.1//EN'  'http://www.w3.org/Graphics/SVG/1.1/DTD/svg11.dtd'><svg enable-background="new 0 0 511 511" height="511px" id="Layer_1" version="1.1" viewBox="0 0 511 511" width="511px" xml:space="preserve" xmlns="http://www.w3.org/2000/svg" xmlns:xlink="http://www.w3.org/1999/xlink"><g><g><g><path d="M452.318,432.466H58.551c-25.992,0-46.619-11.076-54.123-26.927      c8.445,25.986,28.372,43.769,53.141,43.769h396.049c1.063,0,2.116-0.036,3.16-0.101c0.349-0.021,0.69-0.064,1.04-0.094      c0.69-0.057,1.38-0.114,2.062-0.199c0.408-0.051,0.81-0.123,1.216-0.184c0.611-0.092,1.224-0.182,1.827-0.296      c0.426-0.08,0.844-0.18,1.266-0.271c0.573-0.124,1.146-0.248,1.712-0.392c0.429-0.109,0.853-0.236,1.279-0.356      c0.546-0.155,1.091-0.312,1.631-0.485c0.426-0.138,0.85-0.289,1.272-0.438c0.527-0.186,1.05-0.375,1.567-0.577      c0.422-0.166,0.838-0.34,1.255-0.516c0.507-0.216,1.013-0.438,1.516-0.671c0.411-0.19,0.817-0.387,1.223-0.588      c0.495-0.247,0.984-0.501,1.472-0.764c0.398-0.215,0.793-0.433,1.187-0.658c0.481-0.277,0.958-0.564,1.43-0.858      c0.383-0.236,0.764-0.473,1.142-0.72c0.473-0.31,0.937-0.633,1.401-0.958c0.363-0.255,0.729-0.507,1.087-0.773      c0.464-0.345,0.92-0.704,1.375-1.065c0.344-0.27,0.688-0.536,1.025-0.816c0.462-0.384,0.915-0.788,1.367-1.188      c0.314-0.279,0.632-0.549,0.94-0.835c0.477-0.442,0.939-0.904,1.404-1.365c0.269-0.267,0.545-0.526,0.81-0.8      c0.557-0.573,1.097-1.169,1.633-1.77c0.16-0.179,0.325-0.347,0.483-0.526c0.69-0.791,1.364-1.604,2.02-2.438      c0.148-0.191,0.289-0.392,0.435-0.582c0.501-0.651,0.997-1.306,1.476-1.982c0.029-0.041,0.061-0.078,0.088-0.119      c0.482-0.681,0.949-1.378,1.407-2.083c0.11-0.169,0.22-0.339,0.329-0.51c0.498-0.783,0.986-1.571,1.459-2.38      c0.025-0.047,0.05-0.094,0.079-0.141c0.453-0.781,0.889-1.578,1.317-2.385c0.09-0.168,0.18-0.337,0.269-0.507      c0.431-0.83,0.85-1.67,1.253-2.525c0.073-0.156,0.142-0.313,0.214-0.469c0.377-0.81,0.74-1.628,1.09-2.46      c0.046-0.103,0.094-0.207,0.137-0.313c0.021-0.053,0.046-0.107,0.069-0.161c0.35-0.847,0.683-1.708,1.006-2.576      c0.057-0.151,0.113-0.303,0.171-0.456c0.33-0.903,0.645-1.818,0.948-2.743c0.054-0.17,0.11-0.343,0.165-0.515      c0.296-0.932,0.582-1.875,0.849-2.828c0.042-0.147,0.08-0.296,0.121-0.443c0.04-0.145,0.072-0.294,0.112-0.441      C501.729,419.711,480.205,432.466,452.318,432.466z" fill="#BE1E2D"/><path d="M508.691,388.116l-0.624-3.344l-51.736-277.069c-4.73-25.304-30.244-46.011-56.697-46.011H106.401      c-26.46,0-51.663,20.707-56.008,46.011L3.05,383.281l-0.831,4.834c-0.388,2.259-0.534,4.48-0.46,6.655      c0.729,4.309,1.748,8.462,3.036,12.423c7.504,15.852,28.13,26.928,54.122,26.928h393.767c27.887,0,49.413-12.755,55.096-30.479      c0.229-0.852,0.456-1.706,0.66-2.573c0.015-0.059,0.026-0.117,0.039-0.176c0.12-0.511,0.235-1.024,0.347-1.54      C509.434,395.753,509.415,391.989,508.691,388.116z" fill="#EF4136"/></g><path d="M307.318,165.62l2.296,47.259c-1.145,1.368-2.546,2.491-3.982,3.379c-1.569,0.876-2.74,1.368-3.823,1.368     c-1.19,0-2.153-0.373-2.712-1.004c-0.708-0.75-1.009-1.733-1.066-3.246l-1.822-47.757h-13.026l1.352,52.007     c0.096,3.756,0.982,6.506,2.649,8.378c1.665,1.885,4.152,2.75,7.247,2.75c2.716,0,5.247-0.625,8.03-1.862     c2.644-1.379,5.12-3.266,7.552-5.881l0.333,6.878h13.793l-3.789-62.27H307.318z M267.647,168.625     c-3.491-3.119-7.953-4.632-13.296-4.632c-5.873,0-10.601,1.513-14.215,4.387c-3.513,2.866-5.365,6.608-5.458,11.495     l-0.623,32.268c-0.102,5.365,1.681,9.481,5.13,12.628c3.6,3.12,8.455,4.742,14.406,4.742c6.223,0,11.227-1.496,14.694-4.631     c3.601-3.005,5.282-7.137,5.196-12.499l-0.52-32.122C272.888,175.506,271.021,171.627,267.647,168.625z M259.626,213.377     c0.007,1.621-0.527,2.881-1.604,3.877c-1.058,1.01-2.533,1.493-4.41,1.493c-1.738,0-3.202-0.483-4.148-1.493     c-0.921-0.873-1.457-2.256-1.447-3.877l0.228-34.003c0.01-1.366,0.545-2.488,1.577-3.244c0.906-0.885,2.317-1.257,3.865-1.257     c1.676,0,3.099,0.372,4.241,1.257c1.043,0.755,1.568,1.878,1.573,3.244L259.626,213.377z M219.864,143.489l-10.299,33.763h-1.047     l-7.778-33.763h-14.487l14.578,51.004l-1.669,33.396h15.531l1.266-35.018l18.404-49.383H219.864z M328.316,292.148     c0.914,0.995,1.447,2.737,1.585,4.987l0.359,5.756h-11.38l-0.304-5.756c-0.117-2.25,0.07-3.992,1.034-4.987     c0.794-1.008,2.185-1.635,4.336-1.635C325.931,290.513,327.392,291.14,328.316,292.148z M283.472,291.897     c-0.875-1.009-2.324-1.514-4.036-1.514c-0.849,0-1.845,0.13-2.688,0.505c-0.856,0.384-1.839,1.009-2.682,1.768l0.549,35.242     c1.037,0.874,2.231,1.634,3.265,2.004c1.044,0.37,2.073,0.625,3.116,0.625c1.768,0,2.927-0.373,3.632-1.25     c0.727-0.745,1.148-2.011,1.102-3.876l-0.721-29.248C284.964,294.26,284.489,292.893,283.472,291.897z M283.472,291.897     c-0.875-1.009-2.324-1.514-4.036-1.514c-0.849,0-1.845,0.13-2.688,0.505c-0.856,0.384-1.839,1.009-2.682,1.768l0.549,35.242     c1.037,0.874,2.231,1.634,3.265,2.004c1.044,0.37,2.073,0.625,3.116,0.625c1.768,0,2.927-0.373,3.632-1.25     c0.727-0.745,1.148-2.011,1.102-3.876l-0.721-29.248C284.964,294.26,284.489,292.893,283.472,291.897z M353.005,248.261h-195.02     c-21.331,0-40.825,16.008-43.139,35.501l-4.291,36.138c-2.315,19.495,15.028,35.39,38.347,35.39h213.185     c23.306,0,40.672-15.895,38.357-35.39l-4.293-36.138C393.838,264.269,374.323,248.261,353.005,248.261z M209.548,273.138h-14.889     l-3.395,65.5h-15.146l4.195-65.5h-14.749l0.851-11.118h43.567L209.548,273.138z M251.188,338.639h-13.498l0.091-6.233     c-2.403,2.364-5.104,4.115-7.78,5.238c-2.696,1.256-5.253,1.886-7.773,1.886c-3.108,0-5.456-0.89-7.039-2.636     c-1.429-1.626-2.077-4.117-1.96-7.496l1.628-47.381h12.74l-1.028,43.518c-0.028,1.233,0.239,2.242,0.816,2.854     c0.439,0.645,1.449,0.89,2.64,0.89c1.02,0,2.213-0.372,3.714-1.261c1.624-0.75,2.963-1.746,4.147-3.001l0.618-43h12.882     L251.188,338.639z M299.427,326.895c0.146,4.001-0.783,7.122-2.781,9.256c-1.984,2.123-5.089,3.245-9.078,3.245     c-2.7,0-4.932-0.384-7.027-1.233c-2.082-0.904-4.025-2.14-5.827-3.894l0.068,4.37h-13.506l-0.358-76.618h12.672l0.382,24.617     c1.676-1.618,3.494-2.988,5.448-3.869c1.964-0.886,3.942-1.37,5.925-1.37c3.969,0,7.12,1.241,9.319,3.621     c2.223,2.375,3.476,5.869,3.642,10.503L299.427,326.895z M344.473,311.776H319.35l0.558,10.621     c0.159,3.004,0.553,5.008,1.511,6.135c0.936,1.237,2.59,1.74,4.655,1.74c2.207,0,3.647-0.503,4.478-1.5     c0.824-0.874,1.121-3.133,0.918-6.375l-0.162-2.622h13.751l0.21,2.861c0.432,5.896-1.021,10.254-4.232,13.135     c-3.046,2.998-8.02,4.381-14.689,4.381c-6.097,0-10.921-1.514-14.48-4.626c-3.525-3.122-5.482-7.379-5.71-12.89l-1.05-25.375     c-0.203-4.868,1.487-8.871,5.047-11.991c3.397-3.016,7.983-4.62,13.779-4.62c5.808,0,10.438,1.486,13.729,4.369     c3.348,2.874,5.351,6.878,5.745,12.242L344.473,311.776z M279.437,290.383c-0.849,0-1.845,0.13-2.688,0.505     c-0.856,0.384-1.839,1.009-2.682,1.768l0.549,35.242c1.037,0.874,2.231,1.634,3.265,2.004c1.044,0.37,2.073,0.625,3.116,0.625     c1.768,0,2.927-0.373,3.632-1.25c0.727-0.745,1.148-2.011,1.102-3.876l-0.721-29.248c-0.046-1.893-0.521-3.26-1.539-4.256     C282.597,290.888,281.148,290.383,279.437,290.383z M283.472,291.897c-0.875-1.009-2.324-1.514-4.036-1.514     c-0.849,0-1.845,0.13-2.688,0.505c-0.856,0.384-1.839,1.009-2.682,1.768l0.549,35.242c1.037,0.874,2.231,1.634,3.265,2.004     c1.044,0.37,2.073,0.625,3.116,0.625c1.768,0,2.927-0.373,3.632-1.25c0.727-0.745,1.148-2.011,1.102-3.876l-0.721-29.248     C284.964,294.26,284.489,292.893,283.472,291.897z M283.472,291.897c-0.875-1.009-2.324-1.514-4.036-1.514     c-0.849,0-1.845,0.13-2.688,0.505c-0.856,0.384-1.839,1.009-2.682,1.768l0.549,35.242c1.037,0.874,2.231,1.634,3.265,2.004     c1.044,0.37,2.073,0.625,3.116,0.625c1.768,0,2.927-0.373,3.632-1.25c0.727-0.745,1.148-2.011,1.102-3.876l-0.721-29.248     C284.964,294.26,284.489,292.893,283.472,291.897z" fill="#FFFFFF"/></g></g></svg>