<?xml version="1.0" ?><svg id="Layer_1_1_" style="enable-background:new 0 0 64 64;" version="1.1" viewBox="0 0 64 64" xml:space="preserve" xmlns="http://www.w3.org/2000/svg" xmlns:xlink="http://www.w3.org/1999/xlink"><g><g><g><path d="M31,15H15c-0.553,0-1-0.447-1-1V6c0-0.553,0.447-1,1-1h16c0.553,0,1,0.447,1,1v8     C32,14.553,31.553,15,31,15z" style="fill:#00F4CB;"/></g></g><g><g><path d="M49,41H31c-0.553,0-1-0.447-1-1V20c0-0.553,0.447-1,1-1h18c0.553,0,1,0.447,1,1v20     C50,40.553,49.553,41,49,41z" style="fill:#00F4CB;"/></g></g><g><path d="M58,5h-4V2c0-0.552-0.448-1-1-1H11c-0.552,0-1,0.448-1,1v22.568C8.694,24.851,7.355,25,6,25H4c-1.654,0-3,1.346-3,3v4    c0,1.654,1.346,3,3,3h2c1.355,0,2.694,0.149,4,0.432V62c0,0.552,0.448,1,1,1h28c0.134,0,0.264-0.027,0.385-0.078    c0.121-0.051,0.231-0.124,0.322-0.216l13.999-13.999c0.092-0.091,0.165-0.201,0.216-0.322C53.973,48.264,54,48.134,54,48V15h4    c2.757,0,5-2.243,5-5S60.757,5,58,5z M54,9H41V7h13V9z M39,11.92L36.601,10L39,8.08V11.92z M7,33.035v-6.069    c3.551-0.169,6.978-1.227,10-3.109v12.287C13.978,34.261,10.551,33.204,7,33.035z M3,32v-4c0-0.551,0.449-1,1-1h1v6H4    C3.449,33,3,32.551,3,32z M40,59.586V49h10.586L40,59.586z M52,47H39c-0.552,0-1,0.448-1,1v13H12V35.992    c1.556,0.524,3.05,1.242,4.438,2.168l1.008,0.672C17.613,38.944,17.806,39,18,39c0.162,0,0.324-0.039,0.472-0.118    C18.797,38.708,19,38.369,19,38V22c0-0.369-0.203-0.708-0.528-0.882c-0.325-0.175-0.72-0.155-1.026,0.05l-1.008,0.672    c-1.388,0.925-2.881,1.643-4.438,2.168V3h40v2H40c-0.227,0-0.447,0.077-0.625,0.219l-5,4C34.138,9.409,34,9.696,34,10    s0.138,0.591,0.375,0.781l5,4C39.553,14.923,39.773,15,40,15h12V47z M41,13v-2h13v2H41z M58,13h-2V7h2c1.654,0,3,1.346,3,3    S59.654,13,58,13z"/><circle cx="19" cy="10" r="1"/><circle cx="23" cy="10" r="1"/><circle cx="27" cy="10" r="1"/><path d="M34,24c0,0.552,0.448,1,1,1h10c0.552,0,1-0.448,1-1s-0.448-1-1-1H35C34.448,23,34,23.448,34,24z"/><path d="M45,31H35c-0.552,0-1,0.448-1,1s0.448,1,1,1h10c0.552,0,1-0.448,1-1S45.552,31,45,31z"/><path d="M45,35H35c-0.552,0-1,0.448-1,1s0.448,1,1,1h10c0.552,0,1-0.448,1-1S45.552,35,45,35z"/><path d="M45,27h-3c-0.552,0-1,0.448-1,1s0.448,1,1,1h3c0.552,0,1-0.448,1-1S45.552,27,45,27z"/><path d="M35,29h3c0.552,0,1-0.448,1-1s-0.448-1-1-1h-3c-0.552,0-1,0.448-1,1S34.448,29,35,29z"/><path d="M35,49h-8c-0.552,0-1,0.448-1,1s0.448,1,1,1h8c0.552,0,1-0.448,1-1S35.552,49,35,49z"/><path d="M15,51h8c0.552,0,1-0.448,1-1s-0.448-1-1-1h-8c-0.552,0-1,0.448-1,1S14.448,51,15,51z"/><path d="M35,45H15c-0.552,0-1,0.448-1,1s0.448,1,1,1h20c0.552,0,1-0.448,1-1S35.552,45,35,45z"/><path d="M35,53H15c-0.552,0-1,0.448-1,1s0.448,1,1,1h20c0.552,0,1-0.448,1-1S35.552,53,35,53z"/><circle cx="21" cy="58" r="1"/><circle cx="25" cy="58" r="1"/><circle cx="29" cy="58" r="1"/><path d="M21.414,32.829c0.195,0.195,0.451,0.293,0.707,0.293s0.512-0.098,0.707-0.293C23.584,32.073,24,31.068,24,30    s-0.416-2.073-1.171-2.828c-0.391-0.391-1.023-0.391-1.414,0s-0.391,1.023,0,1.414C21.792,28.963,22,29.466,22,30    s-0.208,1.037-0.586,1.415C21.023,31.805,21.023,32.438,21.414,32.829z"/><path d="M24.243,25.757C25.376,26.891,26,28.397,26,30s-0.624,3.109-1.757,4.243c-0.391,0.391-0.391,1.023,0,1.414    c0.195,0.195,0.451,0.293,0.707,0.293s0.512-0.098,0.707-0.293C27.168,34.146,28,32.137,28,30s-0.832-4.146-2.343-5.657    c-0.391-0.391-1.023-0.391-1.414,0S23.852,25.367,24.243,25.757z"/></g></g></svg>