<?xml version="1.0" ?><!DOCTYPE svg  PUBLIC '-//W3C//DTD SVG 1.1//EN'  'http://www.w3.org/Graphics/SVG/1.1/DTD/svg11.dtd'><svg height="100%" style="fill-rule:evenodd;clip-rule:evenodd;stroke-linejoin:round;stroke-miterlimit:1.41421;" version="1.1" viewBox="0 0 508 430" width="100%" xml:space="preserve" xmlns="http://www.w3.org/2000/svg" xmlns:serif="http://www.serif.com/" xmlns:xlink="http://www.w3.org/1999/xlink"><rect height="429.036" id="_2.-VPS" style="fill:none;" width="506.992" x="0.233" y="0.123"/><clipPath id="_clip1"><rect height="429.036" width="506.992" x="0.233" y="0.123"/></clipPath><g clip-path="url(#_clip1)"><g id="Group-2"><rect height="26.242" id="Rectangle-1-copy" style="fill:url(#_Linear2);" width="534.68" x="-17.127" y="350.41"/><path d="M511.301,358.86c0,-3.174 -2.577,-5.751 -5.751,-5.751l-508.349,0c-3.174,0 -5.751,2.577 -5.751,5.751l0,0.013c0,3.174 2.577,5.751 5.751,5.751l508.349,0c3.174,0 5.751,-2.577 5.751,-5.751l0,-0.013Z" id="Rounded-Rectangle-1-copy" style="fill:url(#_Linear3);"/><path d="M270.203,351.742c0,-5.431 -4.41,-9.84 -9.841,-9.84l-25.285,0c-5.432,0 -9.841,4.409 -9.841,9.84l0,25.217c0,5.432 4.409,9.841 9.841,9.841l25.285,0c5.431,0 9.841,-4.409 9.841,-9.841l0,-25.217Z" id="Rounded-Rectangle-1-copy-7" style="fill:url(#_Linear4);"/><path d="M376.196,351.742c0,-5.431 -4.41,-9.84 -9.841,-9.84l-25.285,0c-5.432,0 -9.841,4.409 -9.841,9.84l0,25.217c0,5.432 4.409,9.841 9.841,9.841l25.285,0c5.431,0 9.841,-4.409 9.841,-9.841l0,-25.217Z" id="Rounded-Rectangle-1-copy-8" style="fill:url(#_Linear5);"/><path d="M162.843,351.742c0,-5.431 -4.41,-9.84 -9.841,-9.84l-25.285,0c-5.431,0 -9.841,4.409 -9.841,9.84l0,25.217c0,5.432 4.41,9.841 9.841,9.841l25.285,0c5.431,0 9.841,-4.409 9.841,-9.841l0,-25.217Z" id="Rounded-Rectangle-1-copy-9" style="fill:url(#_Linear6);"/></g><g id="Hosing"><g id="Group-1-copy-3"><g id="Group-1-copy"><path d="M381.86,223.053c0,-4.798 -3.895,-8.693 -8.693,-8.693l-247.621,0c-4.798,0 -8.693,3.895 -8.693,8.693l0,71.692c0,4.798 3.895,8.693 8.693,8.693l247.621,0c4.798,0 8.693,-3.895 8.693,-8.693l0,-71.692Z" id="Rounded-Rectangle-1-copy-71" style="fill:url(#_Linear7);"/><path d="M366.674,303.438l0,-73.295l-242.024,0c-3.359,0 -6.086,-2.726 -6.086,-6.085l0,-3.613c0,-3.359 2.727,-6.085 6.086,-6.085l248.517,0c4.423,0 8.079,3.31 8.623,7.586l0.013,0.109l0.012,0.11l0.011,0.109l0.009,0.11l0.007,0.111l0.007,0.111l0.005,0.111l0.003,0.112l0.002,0.112l0.001,0.112l0,71.692c0,4.798 -3.895,8.693 -8.693,8.693l-6.493,0Z" id="Rounded-Rectangle-2-copy-2" style="fill:url(#_Linear8);"/><circle cx="151.245" cy="262.281" id="Ellipse-4" r="7.335" style="fill:#53ba2f;"/><clipPath id="_clip9"><ellipse cx="152.169" cy="259.931" id="Ellipse-9-copy" rx="1.766" ry="1.752"/></clipPath><g clip-path="url(#_clip9)"><use height="3.504px" transform="matrix(0.882905,0,0,0.876113,0,0)" width="3.532px" x="170.35" xlink:href="#_Image10" y="294.687"/></g><path d="M343.501,260.678c0,-1.919 -1.558,-3.477 -3.477,-3.477l-156.559,0c-1.92,0 -3.478,1.558 -3.478,3.477l0,2.065c0,1.919 1.558,3.477 3.478,3.477l156.559,0c1.919,0 3.477,-1.558 3.477,-3.477l0,-2.065Z" id="Rounded-Rectangle-2" style="fill:#fff;"/><path d="M125.546,214.36l7.09,0l0,74.408l241.998,0c3.359,0.001 6.085,2.727 6.085,6.085l0,3.641c0,0.205 -0.01,0.408 -0.03,0.608c-1.505,2.592 -4.312,4.336 -7.522,4.336l-247.621,0c-4.798,0 -8.693,-3.895 -8.693,-8.693l0,-71.692c0,-4.798 3.895,-8.693 8.693,-8.693Z" id="Rounded-Rectangle-2-copy-3" style="fill:url(#_Radial11);"/></g></g></g><g id="Hosing1"><g id="Group-1-copy-31"><g id="Group-1-copy1"><path d="M381.86,133.611c0,-4.798 -3.895,-8.693 -8.693,-8.693l-247.621,0c-4.798,0 -8.693,3.895 -8.693,8.693l0,71.692c0,4.798 3.895,8.693 8.693,8.693l247.621,0c4.798,0 8.693,-3.895 8.693,-8.693l0,-71.692Z" id="Rounded-Rectangle-1-copy-72" style="fill:url(#_Linear12);"/><path d="M366.674,213.996l0,-73.295l-242.024,0c-3.359,0 -6.086,-2.727 -6.086,-6.085l0,-3.613c0,-3.359 2.727,-6.085 6.086,-6.085l248.517,0c4.423,0 8.079,3.31 8.623,7.586l0.013,0.109l0.012,0.109l0.011,0.11l0.009,0.11l0.007,0.111l0.007,0.111l0.005,0.111l0.003,0.112l0.002,0.111l0.001,0.113l0,71.692c0,4.798 -3.895,8.693 -8.693,8.693l-6.493,0Z" id="Rounded-Rectangle-2-copy-21" style="fill:url(#_Linear13);"/><circle cx="151.245" cy="172.839" id="Ellipse-41" r="7.335" style="fill:#53ba2f;"/><clipPath id="_clip14"><ellipse cx="152.169" cy="170.489" id="Ellipse-9-copy1" rx="1.766" ry="1.752"/></clipPath><g clip-path="url(#_clip14)"><use height="3.504px" transform="matrix(0.882905,0,0,0.876113,0,0)" width="3.532px" x="170.35" xlink:href="#_Image10" y="192.597"/></g><path d="M343.501,171.236c0,-1.919 -1.558,-3.477 -3.477,-3.477l-156.559,0c-1.92,0 -3.478,1.558 -3.478,3.477l0,2.065c0,1.919 1.558,3.477 3.478,3.477l156.559,0c1.919,0 3.477,-1.558 3.477,-3.477l0,-2.065Z" id="Rounded-Rectangle-21" style="fill:#fff;"/><path d="M125.546,124.918l7.09,0l0,74.408l241.998,0c3.359,0.001 6.085,2.727 6.085,6.085l0,3.641c0,0.205 -0.01,0.408 -0.03,0.608c-1.505,2.592 -4.312,4.336 -7.522,4.336l-247.621,0c-4.798,0 -8.693,-3.895 -8.693,-8.693l0,-71.692c0,-4.798 3.895,-8.693 8.693,-8.693Z" id="Rounded-Rectangle-2-copy-31" style="fill:url(#_Radial15);"/></g></g></g><g id="Hosing2"><g id="Group-1-copy-32"><g id="Group-1-copy2"><path d="M381.86,45.128c0,-4.798 -3.895,-8.693 -8.693,-8.693l-247.621,0c-4.798,0 -8.693,3.895 -8.693,8.693l0,71.692c0,4.798 3.895,8.693 8.693,8.693l247.621,0c4.798,0 8.693,-3.895 8.693,-8.693l0,-71.692Z" id="Rounded-Rectangle-1-copy-73" style="fill:url(#_Linear16);"/><path d="M366.674,125.513l0,-73.295l-242.024,0c-3.359,0 -6.086,-2.726 -6.086,-6.085l0,-3.613c0,-3.358 2.727,-6.085 6.086,-6.085l248.517,0c4.423,0 8.079,3.31 8.623,7.586l0.013,0.109l0.012,0.11l0.011,0.109l0.009,0.111l0.007,0.11l0.007,0.111l0.005,0.111l0.003,0.112l0.002,0.112l0.001,0.112l0,71.692c0,4.798 -3.895,8.693 -8.693,8.693l-6.493,0Z" id="Rounded-Rectangle-2-copy-22" style="fill:url(#_Linear17);"/><circle cx="151.245" cy="84.356" id="Ellipse-42" r="7.335" style="fill:#53ba2f;"/><clipPath id="_clip18"><ellipse cx="152.169" cy="82.006" id="Ellipse-9-copy2" rx="1.766" ry="1.752"/></clipPath><g clip-path="url(#_clip18)"><use height="3.504px" transform="matrix(0.882905,0,0,0.876113,0,-2.84217e-14)" width="3.532px" x="170.35" xlink:href="#_Image10" y="91.602"/></g><path d="M343.501,82.753c0,-1.919 -1.558,-3.477 -3.477,-3.477l-156.559,0c-1.92,0 -3.478,1.558 -3.478,3.477l0,2.065c0,1.919 1.558,3.477 3.478,3.477l156.559,0c1.919,0 3.477,-1.558 3.477,-3.477l0,-2.065Z" id="Rounded-Rectangle-22" style="fill:#fff;"/><path d="M125.546,36.435l7.09,0l0,74.408l241.998,0c3.359,0.001 6.085,2.727 6.085,6.086l0,3.64c0,0.205 -0.01,0.408 -0.03,0.608c-1.505,2.592 -4.312,4.336 -7.522,4.336l-247.621,0c-4.798,0 -8.693,-3.895 -8.693,-8.693l0,-71.692c0,-4.798 3.895,-8.693 8.693,-8.693Z" id="Rounded-Rectangle-2-copy-32" style="fill:url(#_Radial19);"/></g></g></g></g><defs><linearGradient gradientTransform="matrix(515.877,0,0,515.877,-6.19488,367.377)" gradientUnits="userSpaceOnUse" id="_Linear2" x1="0" x2="1" y1="0" y2="0"><stop offset="0" style="stop-color:#fff;stop-opacity:0"/><stop offset="0.15" style="stop-color:#7ad5ff;stop-opacity:1"/><stop offset="0.87" style="stop-color:#7ad5ff;stop-opacity:1"/><stop offset="1" style="stop-color:#fff;stop-opacity:0"/></linearGradient><linearGradient gradientTransform="matrix(519.851,0,0,11.515,-8.55004,358.867)" gradientUnits="userSpaceOnUse" id="_Linear3" x1="0" x2="1" y1="0" y2="0"><stop offset="0" style="stop-color:#fff;stop-opacity:0"/><stop offset="0.11" style="stop-color:#fff;stop-opacity:0.65098"/><stop offset="0.91" style="stop-color:#fff;stop-opacity:0.65098"/><stop offset="1" style="stop-color:#fff;stop-opacity:0"/></linearGradient><linearGradient gradientTransform="matrix(-0.717665,79.8487,-79.8487,-0.717665,248.74,320.323)" gradientUnits="userSpaceOnUse" id="_Linear4" x1="0" x2="1" y1="0" y2="0"><stop offset="0" style="stop-color:#7ad6ff;stop-opacity:1"/><stop offset="1" style="stop-color:#2684fb;stop-opacity:1"/></linearGradient><linearGradient gradientTransform="matrix(5.20746e-15,85.0442,-85.0442,5.20746e-15,349.029,315.568)" gradientUnits="userSpaceOnUse" id="_Linear5" x1="0" x2="1" y1="0" y2="0"><stop offset="0" style="stop-color:#7ad6ff;stop-opacity:1"/><stop offset="1" style="stop-color:#2684fb;stop-opacity:1"/></linearGradient><linearGradient gradientTransform="matrix(5.66595e-15,92.532,-92.532,5.66595e-15,140.588,292.114)" gradientUnits="userSpaceOnUse" id="_Linear6" x1="0" x2="1" y1="0" y2="0"><stop offset="0" style="stop-color:#7ad6ff;stop-opacity:1"/><stop offset="0.25" style="stop-color:#7ad6ff;stop-opacity:1"/><stop offset="0.5" style="stop-color:#7ad6ff;stop-opacity:1"/><stop offset="1" style="stop-color:#2684fb;stop-opacity:1"/></linearGradient><linearGradient gradientTransform="matrix(-12.9762,104.611,-104.611,-12.9762,282.838,263.67)" gradientUnits="userSpaceOnUse" id="_Linear7" x1="0" x2="1" y1="0" y2="0"><stop offset="0" style="stop-color:#cce6ff;stop-opacity:1"/><stop offset="0.47" style="stop-color:#9cd1ff;stop-opacity:1"/><stop offset="1" style="stop-color:#1d98ff;stop-opacity:1"/></linearGradient><linearGradient gradientTransform="matrix(39.1086,-129.814,129.814,39.1086,252.825,265.703)" gradientUnits="userSpaceOnUse" id="_Linear8" x1="0" x2="1" y1="0" y2="0"><stop offset="0" style="stop-color:#cce6ff;stop-opacity:0.619608"/><stop offset="0.18" style="stop-color:#e2f1ff;stop-opacity:0.619608"/><stop offset="0.39" style="stop-color:#f6fbff;stop-opacity:0.619608"/><stop offset="1" style="stop-color:#fff;stop-opacity:0.619608"/></linearGradient><radialGradient cx="0" cy="0" gradientTransform="matrix(229.685,0,0,229.685,199.628,401.472)" gradientUnits="userSpaceOnUse" id="_Radial11" r="1"><stop offset="0" style="stop-color:#2884fb;stop-opacity:0.639216"/><stop offset="0.52" style="stop-color:#4f9afb;stop-opacity:0.488812"/><stop offset="1" style="stop-color:#d0e4fc;stop-opacity:0"/></radialGradient><linearGradient gradientTransform="matrix(-12.9762,104.611,-104.611,-12.9762,282.838,174.228)" gradientUnits="userSpaceOnUse" id="_Linear12" x1="0" x2="1" y1="0" y2="0"><stop offset="0" style="stop-color:#cce6ff;stop-opacity:1"/><stop offset="0.47" style="stop-color:#9cd1ff;stop-opacity:1"/><stop offset="1" style="stop-color:#1d98ff;stop-opacity:1"/></linearGradient><linearGradient gradientTransform="matrix(39.1086,-129.814,129.814,39.1086,252.825,176.261)" gradientUnits="userSpaceOnUse" id="_Linear13" x1="0" x2="1" y1="0" y2="0"><stop offset="0" style="stop-color:#cce6ff;stop-opacity:0.619608"/><stop offset="0.18" style="stop-color:#e2f1ff;stop-opacity:0.619608"/><stop offset="0.39" style="stop-color:#f6fbff;stop-opacity:0.619608"/><stop offset="1" style="stop-color:#fff;stop-opacity:0.619608"/></linearGradient><radialGradient cx="0" cy="0" gradientTransform="matrix(229.685,0,0,229.685,199.628,312.03)" gradientUnits="userSpaceOnUse" id="_Radial15" r="1"><stop offset="0" style="stop-color:#2884fb;stop-opacity:0.639216"/><stop offset="0.52" style="stop-color:#4f9afb;stop-opacity:0.488812"/><stop offset="1" style="stop-color:#d0e4fc;stop-opacity:0"/></radialGradient><linearGradient gradientTransform="matrix(-12.9762,104.611,-104.611,-12.9762,282.838,85.7453)" gradientUnits="userSpaceOnUse" id="_Linear16" x1="0" x2="1" y1="0" y2="0"><stop offset="0" style="stop-color:#cce6ff;stop-opacity:1"/><stop offset="0.47" style="stop-color:#9cd1ff;stop-opacity:1"/><stop offset="1" style="stop-color:#1d98ff;stop-opacity:1"/></linearGradient><linearGradient gradientTransform="matrix(39.1086,-129.814,129.814,39.1086,252.825,87.778)" gradientUnits="userSpaceOnUse" id="_Linear17" x1="0" x2="1" y1="0" y2="0"><stop offset="0" style="stop-color:#cce6ff;stop-opacity:0.619608"/><stop offset="0.18" style="stop-color:#e2f1ff;stop-opacity:0.619608"/><stop offset="0.39" style="stop-color:#f6fbff;stop-opacity:0.619608"/><stop offset="1" style="stop-color:#fff;stop-opacity:0.619608"/></linearGradient><radialGradient cx="0" cy="0" gradientTransform="matrix(229.685,0,0,229.685,199.628,223.547)" gradientUnits="userSpaceOnUse" id="_Radial19" r="1"><stop offset="0" style="stop-color:#2884fb;stop-opacity:0.639216"/><stop offset="0.52" style="stop-color:#4f9afb;stop-opacity:0.488812"/><stop offset="1" style="stop-color:#d0e4fc;stop-opacity:0"/></radialGradient></defs></svg>