<?xml version="1.0" encoding="utf-8"?>
<!-- Generator: Adobe Illustrator 25.0.1, SVG Export Plug-In . SVG Version: 6.00 Build 0)  -->
<svg version="1.0" id="Layer_1" xmlns="http://www.w3.org/2000/svg" xmlns:xlink="http://www.w3.org/1999/xlink" x="0px" y="0px"
	 viewBox="0 0 875 544" style="enable-background:new 0 0 875 544;" xml:space="preserve">
<style type="text/css">
	.st0{fill:#333333;}
	.st1{fill:#F79649;}
	.st2{fill:none;}
</style>
<path class="st0" d="M800.2,325.5l-38.9-109.3c-3.3-9-3.7-9.2-13.4-9.2h-2.8c-4.3-0.6-8.3,2.2-9.2,6.5
	c-7.5,21.8-15.5,43.5-23.2,65.3c-5.7,16.1-11.6,32-17.3,48c-0.6,2-2.4,4.5-0.2,6.7s14.9,0.8,16.5-3.9c2.8-8.3,5.9-16.9,8.5-25.4
	c0.3-2.3,2.4-4,4.8-3.7c0,0,0,0,0,0h44.9c2.4-0.4,4.7,1.3,5.1,3.7l0,0c2.4,7.7,5.5,15.1,7.7,22.8s4.9,8.8,10.2,7.7
	C802.9,334.9,803.5,334.3,800.2,325.5z M725.7,287.3l21.6-62.9l21.8,62.9H725.7z"/>
<path class="st0" d="M441.6,270.4v-52.9c0-7.7,1.6-9.4,9.4-9.4c17.7,0,35.6,0.2,53.3-0.2c5.9,0,6.3,3.5,6.3,7.3s-0.6,7.5-6.3,7.3
	c-14-0.4-27.9,0-41.9-0.2c-3.5,0-4.5,1-4.3,4.3c0.2,10.2,0.2,20.4,0,30.3c-0.2,4.1,0.8,5.5,5.1,5.3c11.4-0.4,22.8,0.2,34.2-0.2
	c5.1-0.2,6.1,2.2,6.1,6.7s-0.6,6.9-5.9,6.7h-34.8c-3.5,0-4.9,0.6-4.7,4.5c0.2,12,0.2,23.8,0,35.8c0,3.3,1,4.1,4.1,4.1h42.3
	c5.9-0.2,6.7,2.6,6.7,7.3s-0.8,7.3-6.3,7.1h-55.1c-6.3,0-8.1-2-8.1-8.3C441.4,307.2,441.6,288.7,441.6,270.4z"/>
<path class="st0" d="M369.5,317.2c4.5-13.4,8.4-25.2,12.2-37.2c7.5-22.4,14.9-45,22.2-67.4c1.6-5.1,12.4-7.9,16.5-4.5s0.6,4.1,0,5.9
	c-6.1,17.9-12.4,35.6-18.5,53.5s-14.2,40.1-20.8,60.2c-1.8,5.5-4.7,7.3-10,7.1H365c-4.2,0.3-7.9-2.6-8.8-6.7
	c-12.6-37.2-25.8-74.7-38.8-111.9c-2.9-8.5-2.2-8.8,6.5-9.4s9.4,2,11.4,8.1C346.4,248.6,357.8,282.2,369.5,317.2z"/>
<path class="st0" d="M559,336.1c-8.7-0.3-17.2-2.6-25-6.5c-6.5-3.5-8.5-7.7-7.1-14.9c0.6-3.9,2.4-5.1,5.9-2.9
	c5,3.4,10.5,6.1,16.3,7.9c7.9,2.7,16.5,2.6,24.4-0.2c10.2-3.6,15.5-14.7,12-24.8c-1.3-3.7-3.7-7-6.9-9.4c-4.2-3-8.7-5.6-13.4-7.7
	c-5.7-2.9-11.6-5.3-17.1-8.5c-14.8-8.8-20.5-21.6-17.5-37.6c3.1-16.1,12.8-22.2,29.3-24.8c10.8-1.8,21.9,0,31.5,5.1
	c5.2,3.4,7.1,10.1,4.5,15.7c-1.8,3.2-3.9,0.8-5.5,0c-7.5-4.3-15.3-7.5-24-7.1s-16.5,4.5-18.7,11.4c-2.2,6.9,0,15.7,8.1,21.6
	c5,3.4,10.3,6.3,15.8,8.7c5.3,2.6,10.8,5.1,16.1,8.3c11.6,6.7,17.9,19.9,15.7,33.2c-1.2,13.2-9.9,24.5-22.4,28.9
	C574,335.1,566.5,336.3,559,336.1z"/>
<path class="st0" d="M650.2,277.5c0-16.7-0.2-33.4,0-50.1c0.2-4.3-1.2-5.3-5.1-5.1c-9,0.4-18.1-0.2-27.1,0.2
	c-5.7,0.2-6.5-2.9-6.3-7.1s0.2-7.5,6.1-7.5c27.1,0.4,54.3,0.4,81.4,0c5.9,0,6.1,3.5,6.1,7.5s-0.6,7.3-6.3,7.1
	c-9.2-0.4-18.3,0-27.5-0.2c-3.9,0-4.9,1-4.9,4.9c0.2,33.4,0.2,66.8,0,100.4c0,2.2,1.4,5.5-2,6.5c-4.4,1.7-9.3,1.4-13.4-0.8
	c-1.8-0.8-1-3.2-1-5.1L650.2,277.5z"/>
<circle class="st1" cx="243.2" cy="308.4" r="14.6"/>
<circle class="st1" cx="262.7" cy="338.1" r="14.6"/>
<circle class="st1" cx="278.6" cy="312.9" r="14.6"/>
<circle class="st1" cx="284.9" cy="283.6" r="14.6"/>
<circle class="st1" cx="284.9" cy="252.9" r="14.6"/>
<circle class="st1" cx="275.1" cy="224.6" r="14.6"/>
<circle class="st1" cx="257" cy="201.6" r="14.6"/>
<circle class="st1" cx="233" cy="184.7" r="14.6"/>
<circle class="st1" cx="204.7" cy="174.5" r="14.6"/>
<circle class="st1" cx="174.6" cy="172.7" r="14.6"/>
<circle class="st1" cx="145.7" cy="180.4" r="14.6"/>
<circle class="st1" cx="120.8" cy="197.1" r="14.7"/>
<circle class="st1" cx="102.3" cy="219.5" r="14.6"/>
<circle class="st1" cx="90.7" cy="246.6" r="14.6"/>
<circle class="st1" cx="87.6" cy="277.3" r="14.6"/>
<circle class="st1" cx="93.4" cy="306.4" r="14.6"/>
<circle class="st1" cx="107.2" cy="332" r="14.6"/>
<circle class="st1" cx="128.2" cy="352.8" r="14.6"/>
<circle class="st1" cx="153.6" cy="365.8" r="14.6"/>
<circle class="st1" cx="182.3" cy="371.3" r="14.6"/>
<circle class="st1" cx="213.4" cy="368.7" r="14.6"/>
<circle class="st1" cx="240.3" cy="356.7" r="14.6"/>
<circle class="st1" cx="253.7" cy="280.1" r="14.6"/>
<circle class="st1" cx="250.5" cy="250" r="14.6"/>
<circle class="st1" cx="234" cy="225.4" r="14.6"/>
<circle class="st1" cx="208.4" cy="209.9" r="14.6"/>
<circle class="st1" cx="179" cy="207.1" r="14.6"/>
<circle class="st1" cx="151.2" cy="217.2" r="14.7"/>
<circle class="st1" cx="131.6" cy="238.6" r="14.7"/>
<circle class="st1" cx="120.2" cy="265.5" r="14.7"/>
<circle class="st1" cx="124.1" cy="294.8" r="14.6"/>
<circle class="st1" cx="139.8" cy="319.2" r="14.6"/>
<circle class="st1" cx="164.4" cy="334.5" r="14.6"/>
<circle class="st1" cx="194.3" cy="338.1" r="14.6"/>
<circle class="st1" cx="221.8" cy="328.2" r="14.6"/>
<rect x="46" y="139" class="st2" width="783" height="266"/>
</svg>
